<svg width="32" height="32" viewBox="0 0 32 32" fill="none" xmlns="http://www.w3.org/2000/svg">
<g clip-path="url(#clip0_2091_174)">
<path d="M6.77554 10.5573C7.37223 10.5574 7.85532 11.0416 7.85532 11.6383V30.919C7.85532 31.5157 7.37223 31.9999 6.77554 32H2.17584C1.57905 32 1.09481 31.5158 1.09481 30.919V11.6383C1.09481 11.0415 1.57905 10.5573 2.17584 10.5573H6.77554Z" fill="#5A5750"/>
<path d="M24.0357 10.2341C31.9384 10.2345 31.8935 17.6176 31.8935 21.6745V31.0067C31.8932 31.5549 31.4484 31.9997 30.9002 32H25.9635C25.4153 31.9998 24.9705 31.5549 24.9702 31.0067V21.9626C24.9702 20.6135 25.3662 16.0506 21.4452 16.0501C18.4035 16.0501 17.7862 19.173 17.6623 20.5746V31.0067C17.6619 31.5549 17.2172 31.9997 16.6689 32H11.8951C11.3466 32 10.9021 31.555 10.9017 31.0067V11.5506C10.9018 11.002 11.3465 10.5573 11.8951 10.5573H16.6689C17.2173 10.5575 17.6622 11.0022 17.6623 11.5506V13.2329C18.7902 11.5403 20.4668 10.2341 24.0357 10.2341Z" fill="#5A5750"/>
<path d="M4.47569 0C6.88888 8.27902e-05 8.84491 1.95726 8.84491 4.37047C8.84469 6.78349 6.88885 8.7396 4.47569 8.73969C2.06257 8.73969 0.106695 6.78354 0.106476 4.37047C0.106476 1.95721 2.06243 0 4.47569 0Z" fill="#5A5750"/>
</g>
<defs>
<clipPath id="clip0_2091_174">
<rect width="32" height="32" fill="white"/>
</clipPath>
</defs>
</svg>
