<svg width="32" height="32" viewBox="0 0 32 32" fill="none" xmlns="http://www.w3.org/2000/svg">
<g clip-path="url(#clip0_2091_162)">
<path d="M16.7 0.0266667C18.4467 0 20.18 0.0133333 21.9133 0C22.02 2.04 22.7533 4.12 24.2467 5.56C25.74 7.04 27.8467 7.72 29.9 7.94667V13.32C27.98 13.2533 26.0467 12.8533 24.3 12.0267C23.54 11.68 22.8333 11.24 22.14 10.7867C22.1267 14.68 22.1533 18.5733 22.1133 22.4533C22.0067 24.32 21.3933 26.1733 20.3133 27.7067C18.5667 30.2667 15.54 31.9333 12.4333 31.9867C10.5267 32.0933 8.62 31.5733 6.99334 30.6133C4.3 29.0267 2.40667 26.12 2.12667 23C2.1 22.3333 2.08667 21.6667 2.11334 21.0133C2.35334 18.48 3.60667 16.0533 5.55334 14.4C7.76667 12.48 10.86 11.56 13.7533 12.1067C13.78 14.08 13.7 16.0533 13.7 18.0267C12.38 17.6 10.8333 17.72 9.67334 18.52C8.83334 19.0667 8.19334 19.9067 7.86 20.8533C7.58 21.5333 7.66 22.28 7.67334 23C7.99334 25.1867 10.1 27.0267 12.34 26.8267C13.8333 26.8133 15.26 25.9467 16.0333 24.68C16.2867 24.24 16.5667 23.7867 16.58 23.2667C16.7133 20.88 16.66 18.5067 16.6733 16.12C16.6867 10.7467 16.66 5.38667 16.7 0.0266667Z" fill="#5A5750"/>
</g>
<defs>
<clipPath id="clip0_2091_162">
<rect width="32" height="32" fill="white"/>
</clipPath>
</defs>
</svg>
