<svg width="32" height="32" viewBox="0 0 32 32" fill="none" xmlns="http://www.w3.org/2000/svg">
<path d="M20.7812 0C21.4511 0 22.3768 0.0694522 23.2339 0.171341C23.8759 0.237411 24.5139 0.346789 25.1415 0.497705V6.05405C24.7786 6.02021 24.4141 5.99992 24.0498 5.99368C23.6416 5.98308 23.2326 5.97842 22.8243 5.97899C21.6433 5.97906 20.7207 6.1388 20.0257 6.49465C19.5585 6.72909 19.166 7.08923 18.8916 7.53411C18.4605 8.23589 18.2666 9.19676 18.2666 10.4616V12.6287H24.8151L23.6908 18.7561H18.2666L18.1477 32C17.2778 32 16.5006 32 15.6781 32C14.0077 32 12.8146 32 10.9936 32V18.7561H6.85854V12.6287H10.9936V9.98837C10.9937 3.16284 14.0809 6.41953e-05 20.7812 0Z" fill="#5A5750"/>
</svg>
